<svg width="15" height="24" viewBox="0 0 15 24" fill="none" xmlns="http://www.w3.org/2000/svg">
<g id="fontisto:mobile-alt" clip-path="url(#clip0_10_1366)">
<path id="Vector" d="M12.75 0H2.25C1.65326 0 1.08097 0.237053 0.65901 0.65901C0.237053 1.08097 0 1.65326 0 2.25L0 21.75C0 22.3467 0.237053 22.919 0.65901 23.341C1.08097 23.7629 1.65326 24 2.25 24H12.75C13.3467 24 13.919 23.7629 14.341 23.341C14.7629 22.919 15 22.3467 15 21.75V2.25C15 1.65326 14.7629 1.08097 14.341 0.65901C13.919 0.237053 13.3467 0 12.75 0ZM7.5 22.5C7.30328 22.4999 7.10851 22.461 6.92682 22.3856C6.74512 22.3102 6.58006 22.1997 6.44105 22.0605C6.1603 21.7794 6.00273 21.3983 6.003 21.001C6.00313 20.8043 6.04201 20.6095 6.11741 20.4278C6.19281 20.2461 6.30327 20.0811 6.44246 19.942C6.72358 19.6613 7.10471 19.5037 7.502 19.504C7.89929 19.5043 8.28021 19.6623 8.56095 19.9435C8.84169 20.2246 8.99926 20.6057 8.999 21.003C8.99873 21.4003 8.84066 21.7812 8.55954 22.062C8.27842 22.3427 7.89729 22.5003 7.5 22.5ZM12.75 17.44C12.749 17.5882 12.6896 17.73 12.5848 17.8348C12.48 17.9396 12.3382 17.999 12.19 18H2.812C2.66348 18 2.52104 17.941 2.41602 17.836C2.311 17.731 2.252 17.5885 2.252 17.44V2.813C2.252 2.66448 2.311 2.52204 2.41602 2.41702C2.52104 2.312 2.66348 2.253 2.812 2.253H12.186C12.3342 2.25405 12.476 2.31338 12.5808 2.41818C12.6856 2.52297 12.745 2.6648 12.746 2.813L12.75 17.44Z" fill="#D9D9D9"/>
</g>
<defs>
<clipPath id="clip0_10_1366">
<rect width="15" height="24" fill="white"/>
</clipPath>
</defs>
</svg>
